<svg xmlns="http://www.w3.org/2000/svg" viewBox="0 0 512 512" width="48" height="48">
    <title>Artboard 127</title>
    <g id="Face_Recognition" data-name="Face Recognition">
        <path d="M256,362.66667c78.14994,0,134.87719,17.45552,165.6143,30.03676A42.51428,42.51428,0,0,1,448,432.17454v37.15879a21.33334,21.33334,0,0,1-21.33333,21.33334H48A21.33334,21.33334,0,0,1,64,469.33333V432.17454a42.51428,42.51428,0,0,1,26.3857-39.47111C121.12281,380.12219,177.85006,362.66667,256,362.66667Z" style="fill:#4c4f6e"/>
        <path d="M192,320H320a0,0,0,0,1,0,0v64.00006A63.99994,63.99994,0,0,1,256.00006,448h-.00013A63.99994,63.99994,0,0,1,192,384.00006V320A0,0,0,0,1,192,320Z" style="fill:#999aac"/>
        <rect x="213.33333" y="362.66667" width="48" height="48" rx="21.33331" ry="21.33331" style="fill:#cacad4"/>
        <path d="M277.33333,384A63.52279,63.52279,0,0,0,320,367.39062V320H213.33333A63.99984,63.99984,0,0,0,277.33333,384Z" style="fill:#7c7f95"/>
        <rect x="106.66667" y="192" width="48" height="48" rx="21.33331" ry="21.33331" style="fill:#fcdf3f"/>
        <rect x="362.66667" y="192" width="48" height="48" rx="21.33331" ry="21.33331" transform="translate(768 469.33333) rotate(-180)" style="fill:#fbc700"/>
        <rect x="149.33333" y="48" width="213.33333" height="320" rx="106.66656" ry="106.66656" style="fill:#ffef7d"/>
        <path d="M256,362.66667A106.667,106.667,0,0,0,362.66667,256H149.33333A106.667,106.667,0,0,0,256,362.66667Z" style="fill:#cacad4"/>
        <path d="M170.66667,149.33331v21.33336L149.33333,192v48H128V213.33333A21.33333,21.33333,0,0,0,106.66667,192V170.66652A149.33319,149.33319,0,0,1,255.99985,21.33333h.0003A149.33319,149.33319,0,0,1,405.33333,170.66652V192A21.33333,21.33333,0,0,0,384,213.33333v21.33334H362.66667V192l-21.33334-21.33335V149.33331A21.33333,21.33333,0,0,0,320,128H192A21.33333,21.33333,0,0,0,170.66667,149.33331Z" style="fill:#2c2f53"/>
        <ellipse cx="202.66667" cy="74.66667" rx="36.45009" ry="26.81642" transform="translate(6.56239 165.17633) rotate(-45)" style="fill:#4c4f6e"/>
        <rect x="192" y="149.33333" width="64" height="48" rx="21.33331" ry="21.33331" style="fill:#fffad6"/>
        <circle cx="202.66667" cy="224" r="10.66667" style="fill:#0ac"/>
        <circle cx="309.33333" cy="224" r="10.66667" style="fill:#0ac"/>
        <rect x="64" y="234.66667" width="384" height="48" rx="21.33331" ry="21.33331" style="fill:#48e1f4"/>
    </g>
</svg>
