<?xml version="1.0" encoding="UTF-8"?>
<!DOCTYPE svg PUBLIC "-//W3C//DTD SVG 1.1//EN" "http://www.w3.org/Graphics/SVG/1.1/DTD/svg11.dtd">
<!-- Creator: CorelDRAW -->
<svg xmlns="http://www.w3.org/2000/svg" xml:space="preserve" width="6.82666in" height="6.82666in" style="shape-rendering:geometricPrecision; text-rendering:geometricPrecision; image-rendering:optimizeQuality; fill-rule:evenodd; clip-rule:evenodd"
viewBox="0 0 6.82666 6.82666"
 xmlns:xlink="http://www.w3.org/1999/xlink">
 <defs>
  <style type="text/css">
   <![CDATA[
    .fil2 {fill:none}
    .fil10 {fill:#009688}
    .fil1 {fill:#0D47A1}
    .fil0 {fill:#1976D2}
    .fil15 {fill:#2962FF}
    .fil3 {fill:#424242}
    .fil14 {fill:#4CAF50}
    .fil7 {fill:#A31F3F}
    .fil12 {fill:#B0BEC5}
    .fil11 {fill:#C8E6C9}
    .fil9 {fill:#C96981}
    .fil6 {fill:#E67E98}
    .fil5 {fill:#F6C4AA}
    .fil8 {fill:#FCE4EC}
    .fil16 {fill:#FF1744}
    .fil13 {fill:#FFC400}
    .fil4 {fill:#FFDDCC}
    .fil18 {fill:#263238;fill-rule:nonzero}
    .fil17 {fill:#795548;fill-rule:nonzero}
   ]]>
  </style>
   <clipPath id="id0">
    <path d="M3.41333 0c1.88513,0 3.41333,1.5282 3.41333,3.41333 0,1.88513 -1.5282,3.41333 -3.41333,3.41333 -1.88513,0 -3.41333,-1.5282 -3.41333,-3.41333 0,-1.88513 1.5282,-3.41333 3.41333,-3.41333z"/>
   </clipPath>
 </defs>
 <g id="Layer_x0020_1">
  <metadata id="CorelCorpID_0Corel-Layer"/>
  <path class="fil0" d="M3.41333 0c1.88513,0 3.41333,1.5282 3.41333,3.41333 0,1.88513 -1.5282,3.41333 -3.41333,3.41333 -1.88513,0 -3.41333,-1.5282 -3.41333,-3.41333 0,-1.88513 1.5282,-3.41333 3.41333,-3.41333z"/>
  <g style="clip-path:url(#id0)">
   <g id="_435560320">
    <g>
     <polygon id="_4355577041" class="fil1" points="3.87304,2.15004 7.6593,5.93631 7.65441,5.93964 7.64951,5.94293 7.6446,5.94616 7.63967,5.94935 7.63474,5.9525 7.62979,5.95559 7.62483,5.95865 7.61985,5.96166 7.61487,5.96462 7.60987,5.96754 7.60487,5.97042 7.59985,5.97325 7.59483,5.97604 7.58979,5.97878 7.58474,5.98148 7.57969,5.98414 7.57461,5.98676 7.56954,5.98933 7.56445,5.99186 7.55935,5.99435 7.55425,5.99679 7.54913,5.99919 7.54401,6.00156 7.53887,6.00387 7.53373,6.00615 7.52858,6.00839 7.52343,6.01059 7.51826,6.01274 7.51308,6.01485 7.5079,6.01693 7.50271,6.01896 7.49751,6.02096 3.71124,2.23469 3.71644,2.23269 3.72163,2.23066 3.72681,2.22858 3.73199,2.22647 3.73716,2.22431 3.74231,2.22212 3.74746,2.21988 3.75261,2.2176 3.75774,2.21528 3.76287,2.21292 3.76798,2.21052 3.77309,2.20807 3.77818,2.20559 3.78327,2.20306 3.78835,2.20048 3.79342,2.19787 3.79847,2.19521 3.80352,2.19251 3.80856,2.18977 3.81359,2.18698 3.8186,2.18415 3.82361,2.18127 3.8286,2.17835 3.83359,2.17539 3.83856,2.17238 3.84352,2.16932 3.84847,2.16622 3.85341,2.16308 3.85833,2.15989 3.86324,2.15665 3.86815,2.15337 "/>
     <polygon id="_435557728" class="fil1" points="3.81263,2.33172 7.5989,6.11799 7.60672,6.12696 7.61391,6.13609 7.62052,6.14539 7.62662,6.15483 7.63225,6.16443 7.63746,6.17418 7.64232,6.18406 7.64688,6.19408 7.6512,6.20423 7.65532,6.2145 7.6593,6.2249 7.6632,6.23541 7.66708,6.24602 7.67098,6.25674 7.67496,6.26756 7.67909,6.27847 7.6834,6.28948 7.68796,6.30056 7.69282,6.31172 7.69804,6.32296 7.70367,6.33426 7.70976,6.34563 7.71638,6.35706 7.72357,6.36853 7.73139,6.38006 7.7399,6.39163 7.74915,6.40323 7.75919,6.41487 3.97292,2.62859 3.96288,2.61696 3.95363,2.60535 3.94513,2.59379 3.9373,2.58226 3.93011,2.57078 3.9235,2.55936 3.9174,2.54799 3.91178,2.53669 3.90656,2.52545 3.90169,2.51429 3.89713,2.5032 3.89282,2.4922 3.8887,2.48129 3.88471,2.47047 3.88081,2.45975 3.87694,2.44913 3.87304,2.43863 3.86905,2.42823 3.86493,2.41796 3.86061,2.40781 3.85606,2.39779 3.8512,2.38791 3.84598,2.37816 3.84035,2.36856 3.83426,2.35911 3.82764,2.34982 3.82045,2.34069 "/>
     <polygon id="_435559744" class="fil1" points="4.35273,2.45561 8.139,6.24188 8.13296,6.24154 8.12692,6.24101 8.12087,6.2403 8.11482,6.23939 8.10877,6.23829 8.10274,6.23699 8.09671,6.23548 8.0907,6.23375 8.08472,6.23181 8.07876,6.22964 8.07283,6.22724 8.06694,6.22461 8.06109,6.22173 8.05529,6.21861 8.04954,6.21523 8.04385,6.2116 4.25758,2.42533 4.26328,2.42896 4.26902,2.43234 4.27483,2.43546 4.28068,2.43833 4.28656,2.44097 4.29249,2.44337 4.29845,2.44554 4.30443,2.44748 4.31044,2.4492 4.31647,2.45072 4.3225,2.45202 4.32855,2.45312 4.3346,2.45402 4.34065,2.45474 4.3467,2.45526 "/>
     <polygon id="_435559504" class="fil1" points="4.02213,2.67535 7.80839,6.46163 7.80339,6.46385 7.79837,6.46601 7.79333,6.46812 7.78828,6.47017 7.78322,6.47217 7.77815,6.47411 7.77306,6.476 7.76796,6.47783 7.76285,6.47961 7.75772,6.48134 7.75258,6.48301 7.74743,6.48463 7.74226,6.48619 7.73709,6.4877 7.7319,6.48916 7.7267,6.49056 7.72149,6.49192 7.71627,6.49322 7.71104,6.49447 7.7058,6.49567 7.70054,6.49681 7.69527,6.49791 7.69,6.49896 7.68471,6.49995 7.67941,6.5009 7.67411,6.50179 7.66879,6.50264 7.66346,6.50344 7.65813,6.50419 7.65278,6.50489 7.64743,6.50554 7.64206,6.50614 3.8558,2.71987 3.86116,2.71927 3.86652,2.71861 3.87186,2.71791 3.8772,2.71717 3.88252,2.71637 3.88784,2.71552 3.89315,2.71463 3.89844,2.71368 3.90373,2.71269 3.909,2.71164 3.91427,2.71054 3.91953,2.70939 3.92477,2.7082 3.93,2.70694 3.93522,2.70565 3.94044,2.70429 3.94563,2.70289 3.95082,2.70143 3.956,2.69992 3.96116,2.69835 3.96631,2.69674 3.97145,2.69507 3.97658,2.69334 3.98169,2.69156 3.98679,2.68973 3.99188,2.68784 3.99695,2.6859 4.00202,2.6839 4.00706,2.68185 4.0121,2.67974 4.01712,2.67757 "/>
     <polygon id="_435559888" class="fil1" points="3.8558,2.71987 7.64206,6.50614 7.64716,6.51535 7.65217,6.5246 7.65707,6.53391 7.66188,6.54325 7.66659,6.55265 7.67119,6.56209 7.67569,6.57158 7.68009,6.58112 7.68439,6.5907 7.68857,6.60033 7.69266,6.61001 7.69663,6.61973 7.7005,6.6295 7.70425,6.63931 7.70789,6.64917 7.71142,6.65907 7.71483,6.66902 7.71813,6.67902 7.72131,6.68906 7.72437,6.69915 7.72731,6.70928 7.73014,6.71945 7.73284,6.72967 7.73542,6.73993 7.73787,6.75024 7.7402,6.76059 7.74241,6.77098 7.74448,6.78142 7.74643,6.7919 7.74825,6.80242 7.74994,6.81299 7.75149,6.8236 3.96522,3.03733 3.96367,3.02672 3.96198,3.01615 3.96017,3.00563 3.95822,2.99515 3.95614,2.98471 3.95394,2.97431 3.95161,2.96396 3.94915,2.95366 3.94657,2.94339 3.94387,2.93318 3.94105,2.923 3.9381,2.91287 3.93504,2.90279 3.93186,2.89275 3.92856,2.88275 3.92515,2.8728 3.92162,2.8629 3.91798,2.85304 3.91423,2.84322 3.91036,2.83346 3.90639,2.82374 3.90231,2.81406 3.89812,2.80443 3.89383,2.79485 3.88943,2.78531 3.88492,2.77582 3.88032,2.76638 3.87561,2.75698 3.8708,2.74763 3.8659,2.73833 3.86089,2.72907 "/>
     <polygon id="_435559528" class="fil1" points="3.96522,3.03733 7.75149,6.8236 7.74611,6.82506 7.74072,6.82645 7.73533,6.82777 7.72992,6.82903 7.72451,6.83022 7.71909,6.83134 7.71365,6.83239 7.70822,6.83339 7.70277,6.83431 7.69731,6.83517 7.69185,6.83597 7.68638,6.8367 7.68091,6.83737 7.67542,6.83797 7.66993,6.83851 7.66443,6.83899 3.87817,3.05272 3.88366,3.05224 3.88915,3.0517 3.89464,3.05109 3.90011,3.05043 3.90558,3.0497 3.91105,3.0489 3.9165,3.04804 3.92195,3.04711 3.92739,3.04612 3.93282,3.04507 3.93824,3.04394 3.94365,3.04276 3.94906,3.0415 3.95446,3.04018 3.95985,3.03878 "/>
     <polygon id="_435559336" class="fil1" points="4.93299,4.06475 8.71926,7.85102 8.69823,7.86052 4.91196,4.07424 "/>
     <polygon id="_435559624" class="fil1" points="5.21999,3.81113 9.00626,7.59741 9.0009,7.601 8.99535,7.60442 8.98962,7.60765 8.98372,7.6107 8.97765,7.61359 8.97142,7.61631 8.96505,7.61889 8.95853,7.6213 8.95189,7.62357 8.94512,7.6257 8.93824,7.6277 8.93125,7.62957 8.92417,7.63132 8.917,7.63295 8.90974,7.63447 8.90242,7.63589 8.89504,7.6372 8.8876,7.63843 8.88011,7.63957 8.87259,7.64063 8.86504,7.64161 8.85747,7.64252 8.84989,7.64337 8.8423,7.64415 8.83472,7.64489 8.82716,7.64558 8.81962,7.64624 8.81211,7.64685 8.80465,7.64744 8.79722,7.648 8.78986,7.64855 8.78256,7.64909 4.9963,3.86281 5.00359,3.86228 5.01096,3.86173 5.01838,3.86117 5.02585,3.86058 5.03335,3.85996 5.04089,3.85931 5.04846,3.85862 5.05604,3.85788 5.06362,3.85709 5.0712,3.85624 5.07877,3.85533 5.08632,3.85435 5.09384,3.8533 5.10133,3.85216 5.10877,3.85093 5.11615,3.84962 5.12348,3.8482 5.13073,3.84668 5.1379,3.84505 5.14498,3.8433 5.15197,3.84143 5.15885,3.83943 5.16562,3.8373 5.17226,3.83503 5.17878,3.83261 5.18515,3.83004 5.19138,3.82732 5.19745,3.82443 5.20335,3.82137 5.20908,3.81815 5.21463,3.81473 "/>
     <polygon id="_435560128" class="fil1" points="4.9963,3.86281 8.78256,7.64909 8.78038,7.64921 8.77711,7.64936 8.77289,7.64952 8.76783,7.6497 8.76208,7.64989 8.75577,7.65009 8.74901,7.6503 8.74195,7.65051 8.73471,7.65072 8.72743,7.65094 8.72022,7.65116 8.71323,7.65137 8.70658,7.65158 8.70041,7.65178 8.69483,7.65198 8.68999,7.65215 4.90372,3.86588 4.90856,3.8657 4.91414,3.86551 4.92031,3.86531 4.92696,3.8651 4.93395,3.86489 4.94116,3.86467 4.94844,3.86445 4.95569,3.86424 4.96274,3.86402 4.9695,3.86381 4.97581,3.86362 4.98157,3.86343 4.98662,3.86325 4.99085,3.86309 4.99411,3.86294 "/>
     <polygon id="_435560584" class="fil1" points="2.11987,2.31059 5.90614,6.09686 5.90096,6.09726 5.8958,6.09761 5.89067,6.09792 5.88556,6.09819 5.88048,6.09843 5.87543,6.09862 5.87041,6.09877 5.86543,6.09888 5.86047,6.09895 5.85555,6.09898 5.85066,6.09897 5.84581,6.09892 5.84099,6.09883 5.83622,6.09869 5.83148,6.09851 5.82678,6.0983 2.04052,2.31202 2.04521,2.31224 2.04995,2.31242 2.05472,2.31256 2.05954,2.31265 2.06439,2.3127 2.06928,2.31271 2.0742,2.31268 2.07916,2.31261 2.08415,2.3125 2.08917,2.31235 2.09422,2.31215 2.09929,2.31192 2.1044,2.31165 2.10953,2.31133 2.11469,2.31098 "/>
     <polygon id="_435560632" class="fil1" points="2.09573,3.03536 5.882,6.82163 5.87672,6.82429 5.87142,6.82689 5.86608,6.82943 5.86072,6.83191 5.85531,6.83433 5.84988,6.83669 5.84442,6.83898 5.83893,6.8412 5.8334,6.84337 5.82784,6.84547 5.82224,6.8475 5.81662,6.84947 5.81097,6.85138 5.80528,6.85321 5.79956,6.85498 5.79381,6.85669 2.00754,3.07041 2.01329,3.06871 2.01901,3.06694 2.0247,3.06511 2.03035,3.0632 2.03598,3.06123 2.04157,3.0592 2.04713,3.0571 2.05266,3.05493 2.05815,3.0527 2.06361,3.05041 2.06905,3.04806 2.07445,3.04564 2.07981,3.04316 2.08515,3.04062 2.09046,3.03802 "/>
     <polygon id="_435560080" class="fil1" points="3.86595,4.88917 7.65222,8.67544 7.65111,8.67456 7.65001,8.67369 7.64891,8.67281 7.64781,8.67193 7.64671,8.67105 7.64562,8.67017 7.64452,8.66928 7.64343,8.66839 3.85716,4.88212 3.85826,4.88301 3.85935,4.88389 3.86044,4.88478 3.86154,4.88566 3.86264,4.88654 3.86374,4.88742 3.86485,4.88829 "/>
     <polygon id="_435560200" class="fil1" points="2.30419,3.42709 6.09046,7.21336 6.08517,7.2189 6.07984,7.22441 6.07447,7.22989 6.06906,7.23533 6.0636,7.24075 6.0581,7.24614 6.05256,7.2515 6.04698,7.25682 6.04135,7.26211 6.03569,7.26737 6.02998,7.2726 6.02422,7.27779 6.01843,7.28295 6.01259,7.28807 6.0067,7.29317 6.00078,7.29822 2.21451,3.51195 2.22044,3.5069 2.22632,3.5018 2.23216,3.49668 2.23795,3.49152 2.24371,3.48633 2.24942,3.4811 2.25509,3.47584 2.26071,3.47055 2.26629,3.46522 2.27183,3.45987 2.27733,3.45448 2.28279,3.44906 2.2882,3.44361 2.29357,3.43813 2.2989,3.43263 "/>
     <polygon id="_435560464" class="fil1" points="2.24399,4.88212 6.03026,8.66839 5.85941,8.66839 2.07314,4.88212 "/>
     <polygon id="_435560488" class="fil1" points="2.07314,4.88212 5.85941,8.66839 5.33293,8.66839 1.54666,4.88212 "/>
     <polygon id="_435561496" class="fil1" points="2.49239,3.82661 6.27866,7.61288 6.26894,7.60391 2.48267,3.81763 "/>
     <polygon id="_435561328" class="fil1" points="2.61075,3.64901 6.39702,7.43528 6.39384,7.44129 6.39063,7.44726 6.38739,7.45322 6.38412,7.45914 6.38081,7.46504 6.37747,7.47091 6.37409,7.47674 6.37069,7.48256 6.36725,7.48834 6.36378,7.4941 6.36027,7.49983 6.35672,7.50552 6.35315,7.51119 6.34954,7.51683 6.3459,7.52244 6.34222,7.52802 6.33851,7.53356 6.33476,7.53908 6.33098,7.54456 6.32717,7.55002 6.32331,7.55544 6.31943,7.56083 6.31551,7.56619 6.31156,7.57151 6.30757,7.5768 6.30355,7.58206 6.29949,7.58728 6.29539,7.59247 6.29126,7.59762 6.28709,7.60274 6.28289,7.60783 6.27866,7.61288 2.49239,3.82661 2.49663,3.82156 2.50083,3.81647 2.50499,3.81135 2.50912,3.8062 2.51322,3.80101 2.51728,3.79578 2.5213,3.79053 2.52529,3.78524 2.52924,3.77991 2.53317,3.77456 2.53705,3.76917 2.5409,3.76374 2.54471,3.75829 2.54849,3.75281 2.55224,3.74729 2.55595,3.74174 2.55963,3.73617 2.56327,3.73056 2.56688,3.72492 2.57046,3.71925 2.574,3.71356 2.57751,3.70783 2.58098,3.70207 2.58442,3.69629 2.58783,3.69047 2.5912,3.68463 2.59454,3.67876 2.59785,3.67287 2.60113,3.66694 2.60437,3.66099 2.60757,3.65502 "/>
     <polygon id="_435561376" class="fil1" points="3.85716,4.88212 7.64343,8.66839 6.03026,8.66839 2.24399,4.88212 "/>
     <polygon id="_435561208" class="fil1" points="2.06825,2.70764 5.85452,6.49391 5.84768,6.49768 5.84083,6.50135 5.83396,6.50493 5.82708,6.5084 5.82019,6.51177 5.81329,6.51504 5.80638,6.51821 5.79946,6.52127 5.79254,6.52422 5.7856,6.52707 5.77866,6.52981 5.77171,6.53243 5.76476,6.53495 5.7578,6.53735 5.75085,6.53964 5.74388,6.54181 1.95761,2.75554 1.96458,2.75337 1.97154,2.75108 1.9785,2.74868 1.98544,2.74616 1.99239,2.74354 1.99933,2.7408 2.00627,2.73795 2.0132,2.735 2.02011,2.73194 2.02702,2.72877 2.03393,2.7255 2.04081,2.72213 2.04769,2.71865 2.05456,2.71508 2.06141,2.71141 "/>
     <polygon id="_435561520" class="fil1" points="4.49529,5.05285 8.28156,8.83912 8.25911,8.84099 8.23677,8.84241 8.21455,8.84339 8.19246,8.84391 8.1705,8.84399 8.14868,8.84362 8.12701,8.8428 8.10548,8.84153 8.08412,8.83981 8.06293,8.83764 8.04191,8.83502 8.02106,8.83194 8.00041,8.82843 7.97994,8.82445 7.95968,8.82003 7.93962,8.81515 7.91977,8.80982 7.90015,8.80404 7.88075,8.79781 7.86158,8.79112 7.84266,8.78398 7.82398,8.77639 7.80556,8.76834 7.78739,8.75983 7.76949,8.75088 7.75186,8.74147 7.73452,8.7316 7.71746,8.72128 7.70069,8.7105 7.68422,8.69927 7.66807,8.68758 7.65222,8.67544 3.86595,4.88917 3.8818,4.90131 3.89796,4.913 3.91442,4.92423 3.93119,4.93501 3.94825,4.94533 3.96559,4.9552 3.98322,4.96461 4.00112,4.97356 4.01929,4.98207 4.03771,4.99011 4.05639,4.99771 4.07531,5.00485 4.09448,5.01154 4.11388,5.01777 4.1335,5.02355 4.15335,5.02888 4.17341,5.03376 4.19367,5.03818 4.21414,5.04215 4.2348,5.04567 4.25564,5.04875 4.27666,5.05137 4.29785,5.05354 4.31922,5.05526 4.34074,5.05653 4.36241,5.05735 4.38423,5.05772 4.40619,5.05764 4.42828,5.05711 4.4505,5.05614 4.47284,5.05472 "/>
     <polygon id="_435560920" class="fil1" points="3.79765,3.46774 7.58392,7.25401 7.57661,7.25488 7.5693,7.25562 7.562,7.25621 7.5547,7.25666 7.5474,7.25697 7.54011,7.25715 7.53281,7.25719 7.52552,7.25709 7.51824,7.25685 7.51096,7.25648 7.50368,7.25598 7.49641,7.25535 7.48913,7.25459 7.48187,7.2537 7.47461,7.25268 7.46735,7.25153 7.4601,7.25025 7.45285,7.24885 7.44561,7.24733 7.43837,7.24568 7.43115,7.24391 7.42392,7.24202 7.4167,7.24001 7.40949,7.23788 7.40229,7.23563 7.39509,7.23326 7.3879,7.23078 7.38072,7.22819 7.37354,7.22548 7.36637,7.22266 7.35921,7.21972 7.35206,7.21668 3.56579,3.43041 3.57294,3.43345 3.5801,3.43639 3.58727,3.43921 3.59445,3.44192 3.60163,3.44451 3.60882,3.44699 3.61602,3.44936 3.62322,3.45161 3.63044,3.45374 3.63765,3.45575 3.64488,3.45764 3.65211,3.45941 3.65934,3.46106 3.66658,3.46258 3.67383,3.46398 3.68108,3.46526 3.68834,3.46641 3.6956,3.46743 3.70287,3.46832 3.71014,3.46908 3.71741,3.46971 3.72469,3.47021 3.73197,3.47058 3.73926,3.47081 3.74655,3.47091 3.75384,3.47087 3.76113,3.4707 3.76843,3.47039 3.77573,3.46994 3.78304,3.46935 3.79034,3.46861 "/>
     <polygon id="_435561064" class="fil1" points="4.25758,2.42533 8.04385,6.2116 8.03396,6.20478 8.02471,6.19789 8.01609,6.19093 8.00807,6.1839 8.00065,6.1768 7.99381,6.16963 4.20754,2.38336 4.21438,2.39053 4.22181,2.39763 4.22982,2.40466 4.23844,2.41162 4.24769,2.41851 "/>
     <polygon id="_435561544" class="fil1" points="4.75798,2.87566 8.54425,6.66193 8.62262,7.19442 4.83635,3.40815 "/>
     <polygon id="_435562096" class="fil1" points="5.22052,4.04893 9.00678,7.8352 9.01169,7.84074 9.01633,7.8467 9.02072,7.85309 9.02484,7.85991 9.02869,7.86718 9.03227,7.87489 9.03557,7.88307 9.0386,7.89171 9.04134,7.90082 9.04379,7.91041 9.04595,7.9205 9.04781,7.93107 9.04937,7.94216 9.05063,7.95376 5.26436,4.16748 5.26311,4.15589 5.26154,4.1448 5.25968,4.13422 5.25752,4.12414 5.25507,4.11455 5.25233,4.10544 5.24931,4.0968 5.246,4.08862 5.24242,4.08091 5.23857,4.07364 5.23445,4.06682 5.23006,4.06043 5.22542,4.05447 "/>
     <polygon id="_435561688" class="fil1" points="4.90372,3.86588 8.68999,7.65215 8.71926,7.85102 4.93299,4.06475 "/>
     <polygon id="_435561880" class="fil1" points="3.87817,3.05272 7.66443,6.83899 7.66357,6.84255 7.66267,6.84612 7.66172,6.8497 7.66073,6.85329 7.65969,6.85689 7.65861,6.86049 7.65748,6.86411 7.65631,6.86772 7.65509,6.87135 7.65383,6.87497 7.65252,6.8786 7.65116,6.88223 7.64976,6.88587 7.64831,6.8895 7.64682,6.89314 7.64528,6.89678 3.85902,3.1105 3.86056,3.10687 3.86205,3.10323 3.86349,3.09959 3.86489,3.09596 3.86625,3.09233 3.86756,3.0887 3.86882,3.08507 3.87004,3.08145 3.87121,3.07783 3.87234,3.07422 3.87343,3.07062 3.87446,3.06702 3.87546,3.06343 3.8764,3.05985 3.87731,3.05628 "/>
     <polygon id="_435561904" class="fil1" points="3.85902,3.1105 7.64528,6.89678 7.64309,6.90178 7.64083,6.90672 7.63852,6.9116 7.63615,6.91641 7.63372,6.92115 7.63124,6.92583 7.6287,6.93043 7.62612,6.93496 7.62348,6.93942 7.6208,6.94381 7.61807,6.94812 7.6153,6.95236 7.61248,6.95652 7.60962,6.9606 7.60672,6.9646 7.60379,6.96852 3.81752,3.18225 3.82046,3.17833 3.82335,3.17433 3.82621,3.17024 3.82903,3.16609 3.8318,3.16185 3.83453,3.15754 3.83722,3.15315 3.83985,3.14869 3.84244,3.14416 3.84497,3.13956 3.84745,3.13488 3.84988,3.13014 3.85225,3.12533 3.85457,3.12045 3.85682,3.11551 "/>
     <polygon id="_435562216" class="fil1" points="3.81752,3.18225 7.60379,6.96852 7.60464,6.97722 7.6054,6.98594 7.60607,6.99468 7.60666,7.00343 7.60715,7.0122 7.60756,7.02098 7.60787,7.02978 7.60809,7.03859 7.60821,7.04742 7.60824,7.05626 7.60818,7.06511 7.60802,7.07398 7.60777,7.08286 7.60742,7.09176 7.60697,7.10067 7.60643,7.10959 7.60579,7.11853 7.60504,7.12748 7.6042,7.13644 7.60326,7.14541 7.60222,7.1544 7.60108,7.1634 7.59983,7.17241 7.59848,7.18143 7.59703,7.19046 7.59548,7.19951 7.59381,7.20857 7.59205,7.21763 7.59018,7.22671 7.5882,7.2358 7.58611,7.2449 7.58392,7.25401 3.79765,3.46774 3.79984,3.45863 3.80193,3.44953 3.80391,3.44044 3.80578,3.43136 3.80755,3.4223 3.80921,3.41324 3.81076,3.40419 3.81222,3.39516 3.81356,3.38614 3.81481,3.37713 3.81595,3.36813 3.817,3.35914 3.81794,3.35017 3.81878,3.3412 3.81952,3.33226 3.82016,3.32332 3.8207,3.3144 3.82115,3.30549 3.8215,3.29659 3.82176,3.28771 3.82191,3.27884 3.82197,3.26998 3.82194,3.26115 3.82182,3.25232 3.8216,3.24351 3.82129,3.23471 3.82089,3.22593 3.82039,3.21716 3.81981,3.20841 3.81913,3.19967 3.81837,3.19095 "/>
     <polygon id="_435562840" class="fil1" points="5.26436,4.16748 9.05063,7.95376 9.0523,7.97465 9.0534,7.99547 9.05394,8.0162 9.05394,8.03684 9.05339,8.05738 9.05231,8.07781 9.05069,8.09813 9.04855,8.11832 9.04589,8.13839 9.04271,8.15832 9.03902,8.17811 9.03484,8.19775 9.03016,8.21723 9.02499,8.23655 9.01934,8.2557 9.01321,8.27468 9.00661,8.29346 8.99954,8.31206 8.99202,8.33046 8.98404,8.34866 8.97561,8.36664 8.96675,8.38441 8.95744,8.40194 8.94772,8.41925 8.93757,8.43632 8.927,8.45314 8.91602,8.4697 8.90464,8.48601 8.89286,8.50205 8.88069,8.51781 8.86813,8.53329 8.85519,8.54848 5.06893,4.76221 5.08186,4.74702 5.09442,4.73154 5.10659,4.71578 5.11837,4.69974 5.12976,4.68343 5.14073,4.66687 5.1513,4.65005 5.16145,4.63298 5.17118,4.61567 5.18048,4.59814 5.18934,4.58037 5.19777,4.56239 5.20575,4.54419 5.21327,4.52579 5.22034,4.50719 5.22694,4.48841 5.23307,4.46943 5.23872,4.45028 5.24389,4.43096 5.24857,4.41148 5.25276,4.39183 5.25644,4.37205 5.25962,4.35211 5.26228,4.33205 5.26442,4.31185 5.26604,4.29154 5.26713,4.27111 5.26767,4.25057 5.26768,4.22993 5.26713,4.2092 5.26603,4.18838 "/>
     <polygon id="_435562720" class="fil1" points="3.56579,3.43041 7.35206,7.21668 7.35463,7.22882 7.3571,7.24094 7.35946,7.25304 7.36171,7.26511 7.36385,7.27715 7.36589,7.28917 7.36781,7.30116 7.36963,7.31311 7.37133,7.32504 7.37291,7.33693 7.37438,7.3488 7.37573,7.36062 7.37697,7.37241 7.37809,7.38417 7.37908,7.39588 7.37996,7.40756 7.38071,7.41919 7.38134,7.43079 7.38185,7.44234 7.38222,7.45385 7.38248,7.46531 7.3826,7.47673 7.3826,7.4881 7.38246,7.49943 7.3822,7.5107 7.3818,7.52192 7.38127,7.53309 7.3806,7.5442 7.3798,7.55527 7.37885,7.56628 7.37778,7.57723 7.37656,7.58812 3.59029,3.80185 3.59151,3.79096 3.59259,3.78 3.59353,3.769 3.59433,3.75793 3.595,3.74682 3.59553,3.73565 3.59593,3.72443 3.5962,3.71315 3.59633,3.70183 3.59633,3.69046 3.59621,3.67904 3.59596,3.66758 3.59558,3.65607 3.59507,3.64452 3.59444,3.63292 3.59369,3.62129 3.59281,3.60961 3.59182,3.59789 3.5907,3.58614 3.58946,3.57435 3.58811,3.56252 3.58664,3.55066 3.58506,3.53877 3.58336,3.52684 3.58155,3.51489 3.57962,3.5029 3.57759,3.49088 3.57544,3.47884 3.57319,3.46677 3.57083,3.45467 3.56836,3.44255 "/>
     <polygon id="_435562672" class="fil1" points="3.59029,3.80185 7.37656,7.58812 7.36889,7.58757 7.36124,7.58687 7.35361,7.58599 7.34601,7.58495 7.33843,7.58375 7.33087,7.58239 7.32333,7.58087 7.31581,7.5792 7.30832,7.57737 7.30085,7.57539 7.2934,7.57325 7.28597,7.57096 7.27857,7.56852 7.27119,7.56593 7.26383,7.56319 7.25649,7.56031 7.24918,7.55728 7.24189,7.55411 7.23462,7.55079 7.22737,7.54733 7.22015,7.54374 7.21296,7.54 7.20578,7.53613 7.19863,7.53213 7.1915,7.52799 7.1844,7.52371 7.17731,7.51931 7.17026,7.51477 7.16323,7.51011 7.15622,7.50531 7.14923,7.5004 7.14227,7.49535 3.356,3.70908 3.36296,3.71413 3.36995,3.71904 3.37696,3.72383 3.38399,3.7285 3.39105,3.73304 3.39813,3.73744 3.40523,3.74172 3.41236,3.74586 3.41951,3.74986 3.42669,3.75373 3.43389,3.75747 3.44111,3.76106 3.44835,3.76452 3.45562,3.76783 3.46291,3.77101 3.47022,3.77404 3.47756,3.77692 3.48492,3.77966 3.4923,3.78224 3.4997,3.78469 3.50713,3.78698 3.51458,3.78911 3.52205,3.7911 3.52955,3.79293 3.53706,3.7946 3.5446,3.79612 3.55216,3.79748 3.55974,3.79868 3.56735,3.79972 3.57497,3.80059 3.58262,3.8013 "/>
     <polygon id="_435562912" class="fil1" points="3.356,3.70908 7.14227,7.49535 7.14197,7.50298 7.14162,7.51059 7.14122,7.51818 7.14078,7.52574 7.1403,7.53329 7.13976,7.5408 7.13917,7.5483 7.13854,7.55576 7.13785,7.56321 7.13712,7.57063 7.13634,7.57802 7.13551,7.58539 7.13463,7.59273 7.1337,7.60005 7.13272,7.60733 7.13169,7.6146 3.34542,3.82833 3.34645,3.82106 3.34743,3.81378 3.34836,3.80646 3.34924,3.79912 3.35007,3.79175 3.35085,3.78435 3.35158,3.77694 3.35227,3.76949 3.3529,3.76202 3.35349,3.75453 3.35403,3.74702 3.35452,3.73947 3.35496,3.73191 3.35535,3.72432 3.3557,3.71671 "/>
     <polygon id="_435562504" class="fil1" points="3.34542,3.82833 7.13169,7.6146 7.13873,7.62175 7.14591,7.62882 3.35964,3.84255 3.35246,3.83548 "/>
     <polygon id="_435562960" class="fil1" points="5.06893,4.76221 8.85519,8.54848 8.84196,8.56329 8.82837,8.5778 8.81442,8.592 8.80011,8.60589 8.78546,8.61946 8.77048,8.63269 8.75516,8.6456 8.73951,8.65816 8.72354,8.67037 8.70726,8.68223 8.69067,8.69372 8.67377,8.70485 8.65658,8.7156 8.6391,8.72597 8.62133,8.73594 8.60328,8.74552 8.58496,8.7547 8.56638,8.76346 8.54753,8.77181 8.52843,8.77972 8.50908,8.78722 8.48949,8.79427 8.46966,8.80087 8.4496,8.80702 8.42932,8.81272 8.40881,8.81794 8.3881,8.8227 8.36718,8.82697 8.34606,8.83075 8.32475,8.83404 8.30324,8.83683 8.28156,8.83912 4.49529,5.05285 4.51698,5.05056 4.53848,5.04777 4.5598,5.04448 4.58091,5.0407 4.60183,5.03643 4.62255,5.03167 4.64305,5.02644 4.66333,5.02075 4.68339,5.0146 4.70322,5.008 4.72281,5.00094 4.74216,4.99345 4.76126,4.98554 4.78011,4.97719 4.7987,4.96843 4.81702,4.95925 4.83506,4.94967 4.85283,4.9397 4.87031,4.92933 4.8875,4.91858 4.9044,4.90745 4.92099,4.89596 4.93728,4.8841 4.95324,4.87189 4.96889,4.85933 4.98421,4.84642 4.9992,4.83319 5.01385,4.81962 5.02815,4.80573 5.0421,4.79153 5.05569,4.77702 "/>
     <polygon id="_435562768" class="fil1" points="5.20449,3.55399 8.99076,7.34026 8.99498,7.34494 8.99912,7.3497 9.00317,7.35453 9.00712,7.35943 9.01098,7.3644 9.01475,7.36945 9.01843,7.37457 5.23216,3.5883 5.22848,3.58318 5.22472,3.57813 5.22085,3.57316 5.2169,3.56826 5.21285,3.56343 5.20872,3.55867 "/>
     <polygon id="_435563368" class="fil1" points="5.23216,3.5883 9.01843,7.37457 9.02519,7.38448 9.0314,7.39418 9.03707,7.40365 9.0422,7.41291 9.04681,7.42196 9.05091,7.43081 9.05451,7.43945 9.0576,7.44789 9.06021,7.45612 9.06234,7.46417 9.064,7.47201 9.0652,7.47967 9.06595,7.48714 9.06626,7.49443 9.06613,7.50154 9.06557,7.50846 9.06461,7.51521 9.06323,7.52179 9.06145,7.5282 9.05929,7.53444 9.05675,7.54052 9.05383,7.54644 9.05056,7.5522 9.04693,7.5578 9.04295,7.56326 9.03865,7.56856 9.03401,7.57372 9.02906,7.57873 9.0238,7.5836 9.01824,7.58833 9.01239,7.59294 9.00626,7.59741 5.21999,3.81113 5.22612,3.80667 5.23197,3.80206 5.23753,3.79733 5.24279,3.79246 5.24774,3.78744 5.25238,3.78229 5.25669,3.77698 5.26066,3.77153 5.26429,3.76593 5.26757,3.76017 5.27048,3.75425 5.27302,3.74817 5.27519,3.74193 5.27696,3.73552 5.27834,3.72894 5.27931,3.72219 5.27986,3.71526 5.27999,3.70816 5.27969,3.70087 5.27894,3.6934 5.27774,3.68574 5.27607,3.67789 5.27394,3.66985 5.27133,3.66161 5.26824,3.65318 5.26465,3.64454 5.26055,3.63569 5.25593,3.62664 5.2508,3.61738 5.24513,3.60791 5.23892,3.59821 "/>
     <polygon id="_435563392" class="fil1" points="4.47411,1.96707 8.26038,5.75335 8.27526,5.7705 8.28936,5.78807 8.30262,5.80602 8.31494,5.82435 8.32626,5.84306 8.33649,5.86212 8.34556,5.88153 8.3534,5.90127 8.35992,5.92133 8.36505,5.94172 8.36872,5.9624 8.37083,5.98337 8.37133,6.00462 8.37013,6.02614 8.36716,6.04791 8.36233,6.06993 8.35558,6.09219 8.34682,6.11467 8.33598,6.13736 4.54971,2.35109 4.56055,2.3284 4.56931,2.30592 4.57607,2.28366 4.58089,2.26164 4.58387,2.23987 4.58507,2.21835 4.58457,2.19709 4.58245,2.17613 4.57878,2.15544 4.57365,2.13506 4.56713,2.115 4.5593,2.09526 4.55022,2.07585 4.53999,2.05679 4.52867,2.03808 4.51635,2.01975 4.50309,2.0018 4.48899,1.98423 "/>
     <polygon id="_435563128" class="fil1" points="4.54971,2.35109 8.33598,6.13736 8.33394,6.14114 8.33184,6.14484 8.32967,6.14846 8.32744,6.15201 8.32513,6.15547 8.32277,6.15886 8.32035,6.16217 8.31786,6.1654 8.31532,6.16856 8.31272,6.17164 8.31007,6.17465 8.30736,6.17757 8.30461,6.18043 8.3018,6.18322 8.29894,6.18593 8.29604,6.18857 4.50977,2.4023 4.51267,2.39966 4.51553,2.39694 4.51834,2.39416 4.52109,2.3913 4.5238,2.38837 4.52646,2.38537 4.52906,2.38229 4.53159,2.37913 4.53408,2.3759 4.5365,2.37259 4.53887,2.3692 4.54117,2.36574 4.54341,2.36219 4.54557,2.35857 4.54768,2.35487 "/>
     <polygon id="_435563200" class="fil1" points="4.57529,2.45781 8.36156,6.24408 8.36982,6.25372 8.37807,6.26396 8.38631,6.27481 8.39452,6.28626 8.4027,6.29833 8.41084,6.31101 8.41893,6.32431 8.42697,6.33822 8.43494,6.35274 8.44285,6.36789 8.45068,6.38366 8.45842,6.40005 8.46607,6.41707 8.47362,6.43471 8.48106,6.45298 8.48838,6.47189 8.49558,6.49142 8.50265,6.51159 8.50959,6.53239 8.51637,6.55384 8.523,6.57592 8.52948,6.59864 8.53578,6.62201 8.54191,6.64602 4.75564,2.85975 4.74951,2.83574 4.74321,2.81237 4.73674,2.78965 4.73011,2.76757 4.72332,2.74612 4.71639,2.72532 4.70931,2.70515 4.70211,2.68561 4.69479,2.66671 4.68735,2.64844 4.6798,2.6308 4.67215,2.61378 4.66441,2.59739 4.65658,2.58162 4.64868,2.56647 4.6407,2.55194 4.63267,2.53804 4.62457,2.52474 4.61643,2.51206 4.60825,2.49999 4.60004,2.48854 4.59181,2.47769 4.58356,2.46745 "/>
     <polygon id="_435563248" class="fil1" points="4.75564,2.85975 8.54191,6.64602 8.54425,6.66193 4.75798,2.87566 "/>
    </g>
    <path id="_435560656" class="fil1" d="M4.75798 2.87566l0.0783701 0.532488c0.0586142,0.0102441 0.1905,0.0316378 0.235283,0.052126 0.066874,0.0305906 0.121858,0.0729882 0.160524,0.128028 0.0750827,0.106898 0.0547047,0.175858 -0.0121693,0.222831 -0.0560906,0.0393937 -0.146236,0.046 -0.223693,0.0516811 -0.00850394,0.000622047 -0.068937,0.00214961 -0.0925748,0.00306693l0.0292677 0.19887 -0.0210276 0.00949213c0.0690945,-0.0303661 0.13926,-0.0582205 0.181169,-0.062122 0.0950157,-0.00883858 0.159461,0.0289173 0.171232,0.155362 0.0207795,0.223307 -0.0554291,0.434236 -0.195437,0.594728 -0.139169,0.159535 -0.341378,0.26902 -0.573634,0.290634 -0.240047,0.0223386 -0.462016,-0.0316929 -0.629339,-0.163681 -0.00294882,-0.00232677 -0.00587795,-0.00467323 -0.00879134,-0.00704724l-1.61317 0 -0.170854 0 -0.526476 0c0.000444882,-0.251768 0.0119685,-0.629799 0.309591,-0.696339 0.297878,-0.0666063 0.672213,-0.174811 0.847169,-0.421118 -0.035122,-0.033252 -0.0658622,-0.0721654 -0.0926693,-0.11565 -0.0337047,0.0641772 -0.0729764,0.123909 -0.118362,0.177598 -0.105102,-0.0942638 -0.162752,-0.235858 -0.188201,-0.399524 -0.0280906,0.029622 -0.0579606,0.0579882 -0.0896772,0.0848661 -0.106138,-0.132957 -0.134874,-0.300933 -0.11878,-0.476594 -0.0280433,0.0143543 -0.0574291,0.0261614 -0.0881929,0.0350551 0.0558583,-0.114882 0.0208819,-0.245949 0.0601102,-0.361016 0.000200787,-0.000586614 0.000397638,-0.00116929 0.000598425,-0.00175591 -0.0364331,0.0203543 -0.0734921,0.036626 -0.110634,0.0478976 0.0484528,-0.0481654 0.11872,-0.195051 0.121803,-0.273228 0.00259055,-0.0658386 0.0174016,-0.122606 0.0404528,-0.17172 -0.0276969,0.00220079 -0.0544173,0.00270866 -0.0793543,0.00143307 0.0634449,-0.0455157 0.101516,-0.0839646 0.127217,-0.13061 0.11085,-0.201264 0.170823,-0.216043 0.390917,-0.19265 0.110142,-0.116264 0.353004,-0.274634 0.615012,-0.193146 0.241465,0.0750748 0.314571,0.255713 0.699374,0.354425 -0.0520827,0.0357441 -0.106307,0.0635787 -0.161791,0.0846457 0.0354409,0.0298504 0.069378,0.0621575 0.10139,0.0970315 0.0869646,0.094748 0.0570354,0.218657 0.209492,0.343634 -0.0533307,0.0239961 -0.109067,0.0383307 -0.166331,0.0445157 0.0549055,0.0979488 0.0935591,0.204055 0.109429,0.317457 -0.0286654,0.00796063 -0.0577205,0.0130079 -0.0870591,0.0153898 -0.00446063,0.0189646 -0.0108228,0.0383976 -0.0191496,0.0577874 -0.0115394,0.0268661 -0.0257362,0.0510512 -0.0414961,0.0717441 0.00955118,0.0927638 0.00411417,0.188268 -0.0198701,0.285488 -0.0779528,0.0101024 -0.15561,-0.00427559 -0.231858,-0.0373268 0.0279882,0.129642 0.0382402,0.255551 0.0245,0.371441 -0.0819213,-0.00494094 -0.160165,-0.038311 -0.234287,-0.0927677 -0.00148425,0.0407598 -0.00495276,0.0805866 -0.0105866,0.119244 0.0744764,0.0767638 0.170996,0.138961 0.27674,0.189791 0.0441102,-0.102594 0.115331,-0.19448 0.204193,-0.274189 0.165799,-0.148713 0.463098,-0.273969 0.688854,-0.326201 -0.058874,-0.147638 -0.111488,-0.29213 -0.146827,-0.42389 -0.00324016,-0.0120827 -0.00633465,-0.0240591 -0.00927559,-0.0359213 -0.0604016,-0.243512 -0.0512244,-0.413634 -0.00637008,-0.502307 -0.0321457,-0.00137402 -0.0649331,-0.0102126 -0.0951535,-0.0302795 -0.108925,-0.0723268 -0.106102,-0.157291 -0.0757795,-0.247358 0.0701457,-0.208366 -0.0656102,-0.362429 -0.0406772,-0.394984 0.0127402,-0.0166378 0.0559449,-0.0217441 0.103909,0.00272835 0.19024,0.11339 0.431713,0.322244 0.304677,0.56537 -0.0106535,0.0203898 -0.0243346,0.0373268 -0.039937,0.0512087 0.0857047,0.048689 0.181488,0.19789 0.245866,0.457453l0.00234252 0.0159134z"/>
   </g>
  </g>
  <path class="fil2" d="M3.41333 0c1.88513,0 3.41333,1.5282 3.41333,3.41333 0,1.88513 -1.5282,3.41333 -3.41333,3.41333 -1.88513,0 -3.41333,-1.5282 -3.41333,-3.41333 0,-1.88513 1.5282,-3.41333 3.41333,-3.41333z"/>
  <path class="fil3" d="M3.87304 2.15004c-0.384807,-0.0987126 -0.457913,-0.27935 -0.699378,-0.354425 -0.262008,-0.0814882 -0.504874,0.0768819 -0.615012,0.193146 0.0992874,0.109201 0.80802,0.508772 1.31439,0.16128z"/>
  <path class="fil3" d="M4.02213 2.67535c-0.152457,-0.124976 -0.122528,-0.248886 -0.209496,-0.343634 -0.394563,-0.429886 -1.0824,-0.469059 -1.25398,-0.342957 0.0783031,0.125122 0.90339,0.938583 1.46348,0.686591z"/>
  <path class="fil3" d="M3.96522 3.03733c-0.103504,-0.739642 -1.17629,-1.16901 -1.40657,-1.04856 0.0584528,0.135528 0.814819,1.21289 1.40657,1.04856z"/>
  <path class="fil3" d="M2.04052 2.31202c0.221122,0.0112992 0.582646,-0.11748 0.518134,-0.32326 -0.220094,-0.0233976 -0.280067,-0.00861417 -0.390913,0.19265 -0.0257047,0.0466457 -0.0637756,0.0850945 -0.12722,0.13061z"/>
  <path class="fil3" d="M1.95761 2.75554c0.299894,-0.0910118 0.594169,-0.507972 0.601035,-0.766776 -0.107969,0.0503622 -0.465492,0.144315 -0.479236,0.493547 -0.0030748,0.0781772 -0.0733425,0.225063 -0.121799,0.273228z"/>
  <path class="fil3" d="M2.00754 3.07041c0.432524,-0.125047 0.593697,-0.82628 0.55111,-1.08165 -0.0906024,0.065815 -0.367657,0.358807 -0.491,0.720634 -0.0392283,0.115067 -0.00425197,0.246134 -0.0601102,0.361016z"/>
  <path class="fil3" d="M3.79765 3.46774c0.209303,-0.84837 -0.993984,-1.56561 -1.239,-1.47897 0.0386811,0.142425 0.629937,1.55791 1.239,1.47897z"/>
  <path class="fil3" d="M2.21451 3.51195c0.543579,-0.460673 0.545185,-1.35856 0.344138,-1.52319 -0.101756,0.106902 -0.727291,1.04322 -0.344138,1.52319z"/>
  <path class="fil3" d="M2.49239 3.82661c0.46002,-0.544189 0.291787,-1.70871 0.0662598,-1.83785 -0.0827008,0.122244 -0.523445,1.42781 -0.0662598,1.83785z"/>
  <path class="fil3" d="M3.5903 3.80185c0.0863307,-0.728283 -0.774724,-1.85213 -1.03165,-1.81309 0.0112205,0.147165 0.418594,1.7761 1.03165,1.81309z"/>
  <path class="fil3" d="M2.76792 3.81587c0.373469,-0.606854 0.0330079,-1.73313 -0.209268,-1.8271 -0.0634843,0.13324 -0.304098,1.49 0.209268,1.8271z"/>
  <path class="fil3" d="M3.32502 3.92894c0.187913,-0.708933 -0.506512,-1.94267 -0.766366,-1.94018 -0.00958268,0.147272 0.164638,1.81733 0.766366,1.94018z"/>
  <path class="fil4" d="M3.27143 3.73538c-0.00564961,0.00885433 -0.559862,0.017689 -0.56598,0.0264094 -0.174075,0.248335 -0.550169,0.357126 -0.849201,0.423992 -0.297622,0.0665394 -0.309146,0.444571 -0.309591,0.696339l2.90123 0c-0.000476378,-0.251768 -0.00598031,-0.628441 -0.309591,-0.696339 -0.303622,-0.0678858 -0.701728,-0.190776 -0.866866,-0.450402z"/>
  <path class="fil4" d="M3.28794 3.20506l0 0.712146c-0.159874,0.21013 -0.421449,0.202874 -0.581323,0l0 -0.712146c0,-0.384508 0.581323,-0.384508 0.581323,0z"/>
  <path class="fil5" d="M3.28794 3.20506l0 0.476799c-0.109988,0.0860512 -0.216004,0.13426 -0.290677,0.13426 -0.0746496,0 -0.180665,-0.0482087 -0.290646,-0.134236l0 -0.476823c0,-0.384508 0.581323,-0.384508 0.581323,0z"/>
  <path class="fil4" d="M2.99726 3.69767c-0.189224,0 -0.589043,-0.297539 -0.712622,-0.723661 -0.124791,-0.430315 0.110228,-1.04749 0.712622,-1.04749 0.602417,0 0.837461,0.617173 0.712646,1.04749 -0.123602,0.426122 -0.523366,0.723661 -0.712646,0.723661z"/>
  <path class="fil6" d="M2.6956 3.26126c0.12761,-0.0933661 0.260823,-0.038122 0.305343,-0.038122 0.0445472,0 0.170394,-0.0552441 0.298039,0.038122 -0.0635197,0.256669 -0.507276,0.263157 -0.603382,0z"/>
  <path class="fil7" d="M2.69942 3.25991c0.118484,-0.0417874 0.223197,0.0400315 0.297732,0.0400315 0.0745354,0 0.179531,-0.109866 0.298016,-0.0358543 -0.138831,0.141516 -0.455976,0.133843 -0.595748,-0.00417717z"/>
  <path class="fil8" d="M2.69557 3.25991c0.127646,-0.0526339 0.221567,-0.0144843 0.296102,-0.0144843 0.0745354,0 0.179669,-0.0381496 0.307315,0.0144843 -0.138858,0.0792441 -0.463642,0.0766063 -0.603417,0z"/>
  <path class="fil9" d="M2.69618 3.259c0.127063,-0.118866 0.23615,-0.0363898 0.310551,-0.0363898 0.0744291,0 0.164004,-0.0829134 0.291614,0.0375315 -0.000440945,0.00167717 -0.000972441,0.00332677 -0.00143701,0.00497638 -0.162728,-0.00375591 -0.429035,-0.00590157 -0.600728,-0.00611811z"/>
  <path class="fil4" d="M2.1508 2.87255c0.0608898,-0.0261378 0.146886,0.0379843 0.192102,0.14326 0.0452165,0.105303 0.0325354,0.211815 -0.0283543,0.237976 -0.0608898,0.0261378 -0.146886,-0.0379843 -0.192102,-0.143283 -0.0452165,-0.105272 -0.0325,-0.211791 0.0283543,-0.237953z"/>
  <path class="fil4" d="M3.83063 2.87255c-0.0608661,-0.0261378 -0.146862,0.0380157 -0.192079,0.14326 -0.0452165,0.105303 -0.0325315,0.211815 0.0283543,0.237953 0.0608819,0.0261614 0.146886,-0.0379921 0.192102,-0.14326 0.0452165,-0.105272 0.0325039,-0.211791 -0.028378,-0.237953z"/>
  <path class="fil3" d="M2.26526 2.94939c-0.164106,-0.753378 0.364126,-1.08278 0.740559,-1.08278 0.423929,0 0.821594,0.463504 0.750075,1.04056 -0.219268,-0.103776 -0.342051,-0.131291 -0.545701,-0.371433 0.0175276,0.0744488 0.0314961,0.20022 0.189287,0.288909 -0.256445,0.0416969 -0.608941,-0.249512 -0.863539,-0.582583 -0.0607992,0.236764 -0.158957,0.554933 -0.270681,0.707335z"/>
  <path class="fil10" d="M4.42948 4.56835c-0.023122,-0.143953 -0.0756457,-0.278213 -0.195874,-0.346382 -0.823894,0.27137 -1.64779,0.253736 -2.47168,0 -0.118154,0.0679764 -0.171287,0.202346 -0.19535,0.346437 0.226299,0.00617323 0.419646,0.133319 0.506567,0.313709l1.84828 0c0.0871063,-0.180799 0.281118,-0.308114 0.508055,-0.313764z"/>
  <path class="fil4" d="M2.31912 4.28999c-0.0405,0.0205276 -0.0566929,0.07 -0.0361693,0.1105 0.0205236,0.0405 0.0699961,0.0566929 0.1105,0.0361732 0.0405,-0.0205236 0.0566929,-0.07 0.0361693,-0.1105 -0.0205236,-0.0405 -0.0699961,-0.0566969 -0.1105,-0.0361732z"/>
  <path class="fil11" d="M2.43752 4.37599c-0.0540669,-0.00792126 -0.108134,-0.0169134 -0.162197,-0.0269764 -0.00301181,0.016937 -0.000748031,0.0349528 0.00762598,0.0514764 0.0205236,0.0405 0.0699961,0.0566929 0.1105,0.0361732 0.0245118,-0.0124213 0.0401181,-0.0354528 0.0440709,-0.0606732z"/>
  <path class="fil12" d="M5.09313 4.01213c0.0950157,-0.00884252 0.159465,0.0289134 0.171228,0.155358 0.0207835,0.223307 -0.0554252,0.434236 -0.195433,0.594728 -0.139173,0.159535 -0.341378,0.26902 -0.573634,0.290634 -0.240047,0.0223386 -0.462016,-0.0316929 -0.629339,-0.163681 -0.155016,-0.12228 -0.261287,-0.309803 -0.289512,-0.563496 -0.0257795,-0.231724 0.0797008,-0.429063 0.249909,-0.581736 0.16626,-0.149126 0.464748,-0.274665 0.690728,-0.326638 0.0716142,0.174768 0.143768,0.333248 0.21513,0.508067 -0.014689,0.00798819 -0.0909291,0.0491299 -0.103555,0.0576535 -0.037378,0.0252323 -0.0654213,0.0524291 -0.0790748,0.0803819 -0.0100118,0.0204921 -0.0110354,0.0429882 0.000149606,0.0670433 0.00272835,0.00586614 0.00591732,0.0116181 0.00958268,0.0172402 0.0332756,0.0446299 0.103878,0.0320906 0.183236,0.00176378 0.0787953,-0.0305669 0.268669,-0.129697 0.350583,-0.137319zm-0.0214961 -0.55185c0.066874,0.0305906 0.121858,0.0729882 0.160524,0.128028 0.0750827,0.106898 0.0547047,0.175862 -0.0121693,0.222831 -0.0560866,0.0393976 -0.146236,0.046 -0.223693,0.0516772 -0.0100079,0.00073622 -0.0919331,0.00272441 -0.101177,0.00349213 -0.0251614,-0.181598 -0.0643937,-0.451622 -0.0636024,-0.459004 0.0558504,0.00987402 0.194055,0.0319016 0.240118,0.0529764zm-1.0102 0.540094c0.0366181,-0.00340945 0.0711575,0.00835433 0.0973976,0.030126l2.75591e-005 0.000275591c0.0262362,0.0217756 0.0441654,0.0534646 0.0475551,0.0898898 0.00340551,0.0366181 -0.00835827,0.0711614 -0.0301299,0.0974016 -0.0217677,0.0262362 -0.0535472,0.0441732 -0.0901654,0.0475787 -0.0364291,0.00338976 -0.0708819,-0.00838189 -0.097122,-0.0301535l-0.000275591 2.75591e-005c-0.0262402,-0.0217717 -0.0441732,-0.0535512 -0.0475827,-0.0901693 -0.00338976,-0.0364252 0.00838189,-0.070878 0.0301535,-0.097122l0.000248031 -0.000299213c0.0217756,-0.0262402 0.0534646,-0.0441654 0.0898937,-0.0475551zm0.182697 0.436469c0.0432047,-0.00401969 0.0845709,0.00464173 0.11652,0.0218976l0.000271654 -2.75591e-005c0.0408858,0.0220827 0.068252,0.0580315 0.0723976,0.102606 0.00414961,0.0445787 -0.0161142,0.0849567 -0.0522205,0.114205l-0.000271654 2.75591e-005c-0.0282165,0.0228504 -0.0672756,0.039 -0.11048,0.0430197 -0.0432008,0.00401969 -0.0845669,-0.00464173 -0.11652,-0.0218976l-0.000271654 2.75591e-005c-0.0408819,-0.0220866 -0.068248,-0.0580315 -0.0723976,-0.10261 -0.00414961,-0.0445748 0.0161142,-0.0849567 0.0522205,-0.114205l0.000275591 -2.3622e-005c0.0282165,-0.0228543 0.0672756,-0.039 0.110476,-0.0430197zm0.449583 -0.0418386c0.0366142,-0.00340551 0.0711575,0.00835433 0.0973976,0.030126l2.3622e-005 0.000275591c0.0262402,0.0217756 0.0441654,0.0534646 0.0475551,0.0898937 0.00340945,0.0366181 -0.00835433,0.0711614 -0.030126,0.0973976 -0.0217717,0.0262402 -0.0535472,0.0441732 -0.0901654,0.0475827 -0.0364291,0.00338976 -0.0708819,-0.00838189 -0.097126,-0.0301535l-0.000275591 2.75591e-005c-0.0262362,-0.0217717 -0.0441732,-0.0535512 -0.0475787,-0.0901693 -0.00338976,-0.0364291 0.00838189,-0.070878 0.0301496,-0.097122l0.000251969 -0.00030315c0.0217756,-0.0262362 0.0534646,-0.0441654 0.0898937,-0.0475551z"/>
  <path class="fil13" d="M3.94114 4.14535c0.00340945,0.0366181 0.0213386,0.0683976 0.0475827,0.0901693l0.000271654 -2.75591e-005c0.026248,0.0217717 0.0607008,0.0335433 0.097126,0.0301535 0.0366181,-0.00340945 0.0683976,-0.0213425 0.0901654,-0.0475787 0.0217756,-0.0262402 0.0335354,-0.0607795 0.030126,-0.0974016 -0.00338583,-0.0364291 -0.021315,-0.0681142 -0.0475512,-0.0898937l-2.75591e-005 -0.000271654c-0.0262402,-0.0217717 -0.0607795,-0.0335354 -0.0973976,-0.030126 -0.0364291,0.00338976 -0.0681142,0.021315 -0.0898937,0.0475551l-0.000251969 0.000299213c-0.0217677,0.0262441 -0.0335394,0.0606969 -0.0301496,0.097122z"/>
  <path class="fil14" d="M4.08116 4.59409c0.00414961,0.0445748 0.0315157,0.0805276 0.0724016,0.10261l0.000271654 -2.3622e-005c0.0319488,0.017252 0.073315,0.0259134 0.116516,0.0218937 0.0432008,-0.00401969 0.0822638,-0.0201693 0.11048,-0.0430236l0.000271654 -2.3622e-005c0.0361063,-0.029248 0.0563701,-0.069626 0.0522244,-0.114205 -0.00414961,-0.0445748 -0.0315197,-0.0805236 -0.0724016,-0.102606l-0.000271654 2.75591e-005c-0.0319488,-0.017252 -0.073315,-0.0259213 -0.11652,-0.0218976 -0.0432047,0.00401969 -0.0822559,0.0201693 -0.110476,0.0430197l-0.000275591 2.3622e-005c-0.0361063,0.029252 -0.0563661,0.0696339 -0.0522205,0.114205z"/>
  <path class="fil15" d="M4.57341 4.53998c0.00340945,0.0366181 0.0213465,0.0683937 0.0475866,0.0901654l0.000275591 -2.3622e-005c0.0262441,0.0217677 0.0606929,0.0335433 0.097122,0.0301575 0.0366142,-0.00341339 0.0683937,-0.0213465 0.0901654,-0.0475866 0.0217717,-0.0262362 0.0335354,-0.0607795 0.0301299,-0.0973976 -0.00338976,-0.0364291 -0.0213189,-0.0681142 -0.0475591,-0.0898976l-2.75591e-005 -0.000267717c-0.0262323,-0.0217717 -0.0607795,-0.0335354 -0.0973976,-0.0301299 -0.0364291,0.00338976 -0.0681142,0.0213189 -0.0898898,0.0475551l-0.000251969 0.00030315c-0.0217717,0.0262441 -0.0335433,0.0606929 -0.0301535,0.097122z"/>
  <path class="fil16" d="M4.28561 3.90307c0.00325984,0.0256299 0.0204094,0.0478701 0.0455039,0.0631102l0.000259843 -1.9685e-005c0.0251024,0.0152362 0.0580551,0.0234803 0.0928937,0.0211063 0.0350197,-0.00238583 0.0654134,-0.014937 0.0862323,-0.0333031 0.0208228,-0.0183661 0.0320748,-0.0425433 0.028811,-0.0681732 -0.00324016,-0.0255 -0.0203858,-0.0476772 -0.0454764,-0.0629173l-2.75591e-005 -0.000192913c-0.0250945,-0.0152402 -0.0581299,-0.0234724 -0.0931496,-0.0210866 -0.0348386,0.00237402 -0.0651457,0.0149213 -0.0859724,0.0332835l-0.000240157 0.000208661c-0.0208189,0.018374 -0.0320787,0.0424882 -0.0288346,0.0679843z"/>
  <path class="fil17" d="M4.80501 4.12253c-0.136146,-0.360343 -0.358665,-0.812819 -0.445906,-1.16461 -0.172886,-0.697024 0.22426,-0.792744 0.396535,-0.0981732l0.17735 1.20501 -0.12798 0.0577795z"/>
  <path class="fil18" d="M4.54971 2.35109c-0.0287126,0.0549606 -0.0794055,0.0847992 -0.130516,0.0974764 -0.050689,0.0125669 -0.109902,0.0111102 -0.161614,-0.0232323 -0.108925,-0.0723268 -0.106102,-0.157291 -0.0757835,-0.247358 0.0701496,-0.208366 -0.0656063,-0.362429 -0.0406732,-0.394984 0.0127362,-0.0166378 0.0559449,-0.0217441 0.103913,0.00272835 0.190236,0.11339 0.431713,0.322244 0.304673,0.56537z"/>
  <path class="fil12" d="M4.35273 2.45561c-0.0448543,0.0886732 -0.0540315,0.258795 0.00637008,0.502307 0.00294094,0.0118622 0.00603543,0.0238386 0.00927559,0.0359213 0.152106,0.0109961 0.281854,-0.028626 0.389602,-0.118177l-0.00234252 -0.0159134c-0.064378,-0.259563 -0.160161,-0.408764 -0.245866,-0.457453 -0.0264528,0.0235315 -0.0584331,0.0382953 -0.0905787,0.0462638 -0.021063,0.00522441 -0.0436024,0.00802362 -0.0664606,0.00705118z"/>
  <circle class="fil11" cx="2.03375" cy="4.55936" r="0.0556487"/>
  <circle class="fil11" cx="3.07119" cy="4.77525" r="0.0556487"/>
  <circle class="fil11" cx="3.19384" cy="4.60573" r="0.0556487"/>
  <circle class="fil11" transform="matrix(-0.649842 0.329315 0.329316 0.649842 1.7735 4.29587)" r="0.0763858"/>
  <circle class="fil11" cx="2.18077" cy="4.65508" r="0.0822139"/>
  <circle class="fil11" transform="matrix(0.743402 -0.376728 -0.376728 -0.743401 3.43063 4.6736)" r="0.0763858"/>
  <circle class="fil11" cx="2.99024" cy="4.60829" r="0.0822139"/>
  <circle class="fil11" cx="3.27479" cy="4.77269" r="0.0822139"/>
  <circle class="fil11" cx="2.43626" cy="4.69303" r="0.108779"/>
  <circle class="fil11" transform="matrix(1.27028 -0.643728 -0.643729 -1.27028 1.81248 4.4762)" r="0.0763858"/>
  <circle class="fil11" cx="2.73475" cy="4.57035" r="0.0847236"/>
  <circle class="fil11" cx="3.615" cy="4.81064" r="0.0455269"/>
  <circle class="fil11" transform="matrix(-0.989367 0.501373 0.501374 0.989366 2.13419 4.4507)" r="0.0763858"/>
  <circle class="fil11" cx="2.69175" cy="4.73097" r="0.024024"/>
  <circle class="fil11" cx="3.25329" cy="4.46661" r="0.024024"/>
  <circle class="fil11" cx="2.63861" cy="4.81063" r="0.0354136"/>
  <circle class="fil11" cx="3.60363" cy="4.63862" r="0.0354136"/>
  <circle class="fil11" transform="matrix(0.280542 -0.142168 -0.142168 -0.280542 2.02323 4.32686)" r="0.0763858"/>
  <circle class="fil11" cx="2.47926" cy="4.5324" r="0.024024"/>
  <circle class="fil11" transform="matrix(-0.280542 0.142168 0.142168 0.280542 1.92345 4.60004)" r="0.0763858"/>
  <circle class="fil11" cx="2.24399" cy="4.84605" r="0.0360704"/>
  <circle class="fil11" cx="2.84477" cy="4.81063" r="0.024024"/>
  <circle class="fil11" cx="3.38991" cy="4.46917" r="0.024024"/>
  <circle class="fil11" cx="2.73689" cy="4.83149" r="0.0132998"/>
  <circle class="fil11" cx="3.52814" cy="4.54949" r="0.0132998"/>
 </g>
</svg>
